<svg width="20" height="20" viewBox="0 0 20 20" fill="none" xmlns="http://www.w3.org/2000/svg">
<path d="M18.1851 6.1925C18.1084 6.08173 18.0061 5.99119 17.8868 5.92864C17.7675 5.86608 17.6348 5.83338 17.5001 5.83334H6.11091L5.14925 3.525C5.02316 3.22102 4.80964 2.96133 4.53577 2.77885C4.2619 2.59636 3.94001 2.49932 3.61091 2.5H1.66675V4.16667H3.61091L7.56425 13.6542C7.62757 13.806 7.7344 13.9356 7.87127 14.0268C8.00814 14.118 8.16894 14.1667 8.33341 14.1667H15.0001C15.3476 14.1667 15.6584 13.9508 15.7809 13.6267L18.2809 6.96C18.3282 6.83385 18.3441 6.69813 18.3274 6.56446C18.3107 6.43079 18.2619 6.30316 18.1851 6.1925ZM14.4226 12.5H8.88925L6.80591 7.5H16.2976L14.4226 12.5Z" fill="#000201"/>
<path d="M8.75 17.5C9.44036 17.5 10 16.9404 10 16.25C10 15.5596 9.44036 15 8.75 15C8.05964 15 7.5 15.5596 7.5 16.25C7.5 16.9404 8.05964 17.5 8.75 17.5Z" fill="#000201"/>
<path d="M14.5833 17.5C15.2736 17.5 15.8333 16.9404 15.8333 16.25C15.8333 15.5596 15.2736 15 14.5833 15C13.8929 15 13.3333 15.5596 13.3333 16.25C13.3333 16.9404 13.8929 17.5 14.5833 17.5Z" fill="#000201"/>
</svg>
