<svg width="20" height="20" viewBox="0 0 20 20" fill="none" xmlns="http://www.w3.org/2000/svg">
<path d="M9.9999 3.82917C9.0919 2.99426 7.90341 2.53088 6.6699 2.53084C6.01702 2.53152 5.37071 2.6613 4.76818 2.91273C4.16565 3.16415 3.61879 3.53225 3.15907 3.99584C1.19824 5.965 1.19907 9.04501 3.16074 11.0058L9.27074 17.1158C9.4124 17.365 9.68574 17.5258 9.9999 17.5258C10.1289 17.5246 10.2558 17.4931 10.3704 17.4339C10.4851 17.3747 10.5842 17.2895 10.6599 17.185L16.8391 11.0058C18.8007 9.04417 18.8007 5.965 16.8374 3.9925C16.3779 3.52977 15.8315 3.16242 15.2295 2.91157C14.6276 2.66073 13.982 2.53134 13.3299 2.53084C12.0964 2.53104 10.908 2.9944 9.9999 3.82917ZM15.6591 5.17084C16.9616 6.48 16.9624 8.52501 15.6607 9.82751L9.9999 15.4883L4.33907 9.82751C3.0374 8.52501 3.03824 6.48001 4.3374 5.17417C4.97074 4.54417 5.79907 4.1975 6.6699 4.1975C7.54074 4.1975 8.36574 4.54417 8.99407 5.1725L9.41074 5.58917C9.48806 5.66663 9.5799 5.72807 9.68099 5.77C9.78209 5.81193 9.89046 5.83351 9.9999 5.83351C10.1093 5.83351 10.2177 5.81193 10.3188 5.77C10.4199 5.72807 10.5117 5.66663 10.5891 5.58917L11.0057 5.1725C12.2657 3.915 14.4007 3.91834 15.6591 5.17084Z" fill="white"/>
</svg>
