<svg width="40" height="40" viewBox="0 0 40 40" fill="none" xmlns="http://www.w3.org/2000/svg">
<circle cx="20" cy="20" r="20" fill="#265E55"/>
<path d="M30 16C30.0097 15.9303 30.0097 15.8597 30 15.79V15.71C29.9828 15.6542 29.9593 15.6005 29.93 15.55C29.917 15.5212 29.9002 15.4943 29.88 15.47L29.78 15.34L29.7 15.28L29.58 15.19L20.58 10.19C20.428 10.1022 20.2555 10.056 20.08 10.056C19.9045 10.056 19.732 10.1022 19.58 10.19L10.58 15.19L10.49 15.26L10.38 15.34C10.3509 15.3727 10.3273 15.4098 10.31 15.45C10.278 15.4787 10.251 15.5125 10.23 15.55C10.204 15.5939 10.1839 15.6409 10.17 15.69C10.1644 15.7231 10.1644 15.7569 10.17 15.79C10.1012 15.8493 10.0437 15.9204 10 16V24C10.0013 24.1782 10.0502 24.3528 10.1416 24.5058C10.233 24.6587 10.3637 24.7845 10.52 24.87L19.52 29.87C19.5613 29.8941 19.6049 29.9142 19.65 29.93H19.75C19.9143 29.9699 20.0857 29.9699 20.25 29.93H20.35L20.49 29.87L29.49 24.87C29.6445 24.7832 29.7731 24.6569 29.8627 24.504C29.9523 24.3511 29.9997 24.1772 30 24V16ZM20 19.87L13.06 16L15.82 14.48L22.65 18.38L20 19.87ZM20 12.15L26.94 16L24.7 17.25L17.87 13.34L20 12.15ZM12 17.7L19 21.62V27.3L12 23.41V17.7ZM21 27.3V21.62L24 19.94V23L26 22V18.82L28 17.71V23.41L21 27.3Z" fill="#F8DFB6"/>
</svg>
