<svg width="35" height="35" viewBox="0 0 35 35" fill="none" xmlns="http://www.w3.org/2000/svg">
<path d="M17.4985 10.7583C15.71 10.7583 13.9948 11.4688 12.7302 12.7334C11.4656 13.998 10.7551 15.7132 10.7551 17.5016C10.7551 19.2901 11.4656 21.0053 12.7302 22.2699C13.9948 23.5345 15.71 24.245 17.4985 24.245C19.2869 24.245 21.0021 23.5345 22.2667 22.2699C23.5313 21.0053 24.2418 19.2901 24.2418 17.5016C24.2418 15.7132 23.5313 13.998 22.2667 12.7334C21.0021 11.4688 19.2869 10.7583 17.4985 10.7583ZM17.4985 21.881C16.3366 21.881 15.2223 21.4195 14.4007 20.5979C13.5792 19.7763 13.1176 18.662 13.1176 17.5002C13.1176 16.3383 13.5792 15.224 14.4007 14.4025C15.2223 13.5809 16.3366 13.1193 17.4985 13.1193C18.6603 13.1193 19.7746 13.5809 20.5962 14.4025C21.4177 15.224 21.8793 16.3383 21.8793 17.5002C21.8793 18.662 21.4177 19.7763 20.5962 20.5979C19.7746 21.4195 18.6603 21.881 17.4985 21.881Z" fill="#F8DFB6"/>
<path d="M24.5089 12.0822C25.3771 12.0822 26.0809 11.3783 26.0809 10.5101C26.0809 9.64183 25.3771 8.93799 24.5089 8.93799C23.6406 8.93799 22.9368 9.64183 22.9368 10.5101C22.9368 11.3783 23.6406 12.0822 24.5089 12.0822Z" fill="#F8DFB6"/>
<path d="M29.944 8.91191C29.6064 8.04009 29.0905 7.24836 28.4292 6.58741C27.768 5.92646 26.9761 5.41084 26.1042 5.07357C25.0838 4.69055 24.0059 4.48345 22.9163 4.46107C21.5119 4.39982 21.0671 4.38232 17.5058 4.38232C13.9446 4.38232 13.4881 4.38232 12.0954 4.46107C11.0066 4.4823 9.92945 4.68945 8.91043 5.07357C8.03825 5.41045 7.24613 5.92593 6.58488 6.58693C5.92362 7.24793 5.40785 8.03986 5.07064 8.91191C4.68754 9.93218 4.48091 11.0102 4.4596 12.0998C4.39689 13.5027 4.37793 13.9475 4.37793 17.5102C4.37793 21.0715 4.37793 21.525 4.4596 22.9207C4.48147 24.0115 4.6871 25.0877 5.07064 26.11C5.40879 26.9818 5.92507 27.7734 6.58648 28.4343C7.24789 29.0952 8.0399 29.6109 8.91189 29.9484C9.92898 30.3468 11.0066 30.5687 12.0983 30.6046C13.5027 30.6659 13.9475 30.6848 17.5088 30.6848C21.07 30.6848 21.5265 30.6848 22.9192 30.6046C24.0087 30.5825 25.0866 30.3759 26.1071 29.9936C26.9788 29.6555 27.7705 29.1395 28.4316 28.4783C29.0928 27.8172 29.6088 27.0255 29.9469 26.1538C30.3304 25.1329 30.5361 24.0567 30.5579 22.9659C30.6206 21.563 30.6396 21.1182 30.6396 17.5554C30.6396 13.9927 30.6396 13.5407 30.5579 12.145C30.541 11.04 30.3332 9.94623 29.944 8.91191ZM28.1677 22.8127C28.1583 23.6532 28.0049 24.4858 27.7142 25.2744C27.4952 25.8415 27.1599 26.3565 26.7299 26.7862C26.2999 27.216 25.7847 27.5509 25.2175 27.7696C24.4376 28.059 23.6139 28.2124 22.7821 28.2232C21.3967 28.2873 21.0058 28.3034 17.4533 28.3034C13.8979 28.3034 13.5348 28.3034 12.1231 28.2232C11.2918 28.213 10.4684 28.0596 9.68918 27.7696C9.11997 27.5523 8.60272 27.2179 8.17089 26.7881C7.73906 26.3583 7.40227 25.8426 7.1823 25.2744C6.89566 24.4943 6.74234 23.6715 6.72876 22.8404C6.66605 21.455 6.65147 21.0642 6.65147 17.5117C6.65147 13.9577 6.65147 13.5946 6.72876 12.1815C6.73819 11.3415 6.89159 10.5094 7.1823 9.72128C7.6271 8.57066 8.53855 7.66503 9.68918 7.22462C10.4688 6.93607 11.2919 6.78269 12.1231 6.77107C13.51 6.70837 13.8994 6.69087 17.4533 6.69087C21.0073 6.69087 21.3719 6.69087 22.7821 6.77107C23.6139 6.78108 24.4378 6.93451 25.2175 7.22462C25.7847 7.44376 26.2998 7.77908 26.7298 8.20903C27.1597 8.63899 27.495 9.1541 27.7142 9.72128C28.0008 10.5014 28.1541 11.3242 28.1677 12.1552C28.2304 13.5421 28.2465 13.9315 28.2465 17.4854C28.2465 21.0379 28.2465 21.42 28.1838 22.8142H28.1677V22.8127Z" fill="#F8DFB6"/>
</svg>
