<svg width="60" height="24" viewBox="0 0 60 24" fill="none" xmlns="http://www.w3.org/2000/svg">
<g clip-path="url(#clip0_191_1826)">
<path d="M28.4488 11.6155V18.5904H26.2383V1.37298H32.101C33.5152 1.34553 34.8744 1.88099 35.9042 2.86955C36.9339 3.78946 37.5106 5.12127 37.4831 6.49427C37.5106 7.88099 36.9339 9.2128 35.9042 10.1464C34.8744 11.1213 33.6113 11.6155 32.1147 11.6155H28.4488ZM28.4488 3.4874V9.50113H32.1559C32.9797 9.52859 33.776 9.19907 34.339 8.60868C35.506 7.48282 35.5197 5.62928 34.3939 4.46223L34.339 4.40731C33.776 3.80319 32.9797 3.47367 32.1559 3.50113L28.4488 3.4874ZM42.577 6.42562C44.2108 6.42562 45.5014 6.86497 46.4488 7.72996C47.3962 8.60868 47.863 9.80319 47.863 11.3272V18.5766H45.7486V16.9428H45.6525C44.7326 18.2883 43.5243 18.9611 42.0003 18.9611C40.7097 18.9611 39.6113 18.5766 38.7463 17.8078C37.895 17.0938 37.4145 16.0366 37.4419 14.9245C37.4419 13.7025 37.9088 12.7414 38.8287 12.0137C39.7486 11.286 40.9843 10.929 42.522 10.929C43.8401 10.929 44.911 11.1762 45.7623 11.643V11.135C45.7623 10.3798 45.4328 9.66589 44.8561 9.18534C44.2657 8.6636 43.5106 8.37527 42.728 8.37527C41.4923 8.37527 40.5175 8.89701 39.7898 9.94049L37.8401 8.71852C38.8973 7.19449 40.4763 6.42562 42.577 6.42562ZM39.7211 14.9794C39.7211 15.5561 39.9957 16.0915 40.4488 16.421C40.9431 16.8055 41.5472 17.0114 42.1651 16.9977C43.0987 16.9977 43.9911 16.627 44.6502 15.968C45.3779 15.2815 45.7486 14.4714 45.7486 13.5377C45.0621 12.9885 44.101 12.7139 42.8653 12.7139C41.9728 12.7139 41.2177 12.9336 40.6136 13.3593C40.0232 13.7986 39.7211 14.3341 39.7211 14.9794ZM60.0003 6.81006L52.6136 23.7803H50.3344L53.0804 17.849L48.22 6.82379H50.6227L54.1239 15.2815H54.1788L57.5975 6.82379L60.0003 6.81006Z" fill="#5F6368"/>
<path d="M19.5099 10.1053C19.5099 9.43248 19.455 8.75972 19.3451 8.10068H10.0225V11.9039H15.3634C15.1437 13.1258 14.4298 14.2242 13.3863 14.9107V17.3821H16.5717C18.4389 15.6659 19.5099 13.1258 19.5099 10.1053Z" fill="#4285F4"/>
<path d="M10.0227 19.7711C12.6863 19.7711 14.938 18.8924 16.5719 17.3821L13.3866 14.9107C12.4941 15.5149 11.3545 15.8581 10.0227 15.8581C7.44148 15.8581 5.25841 14.1144 4.4758 11.7803H1.19434V14.3341C2.86939 17.6567 6.28816 19.7711 10.0227 19.7711Z" fill="#34A853"/>
<path d="M4.47588 11.7803C4.06398 10.5583 4.06398 9.22652 4.47588 7.99082V5.45078H1.19442C0.497164 6.8251 0.133789 8.34447 0.133789 9.88556C0.133789 11.4266 0.497164 12.946 1.19442 14.3203L4.47588 11.7803Z" fill="#FBBC04"/>
<path d="M10.0227 3.91303C11.4369 3.88557 12.7962 4.42104 13.8122 5.39587L16.6268 2.58122C14.8419 0.892436 12.4804 -0.0274728 10.0227 -1.28514e-05C6.28816 -1.28514e-05 2.86939 2.1144 1.19434 5.45079L4.4758 8.00456C5.25841 5.65674 7.44148 3.91303 10.0227 3.91303Z" fill="#EA4335"/>
</g>
<defs>
<clipPath id="clip0_191_1826">
<rect width="60" height="23.8902" fill="white"/>
</clipPath>
</defs>
</svg>
