<svg width="60" height="60" viewBox="0 0 60 60" fill="none" xmlns="http://www.w3.org/2000/svg">
<circle cx="30" cy="30" r="30" fill="#F8F8F8"/>
<path d="M30 17.5C26.5538 17.5 23.75 20.3038 23.75 23.75V26.25H22.5C21.1212 26.25 20 27.3713 20 28.75V40C20 41.3787 21.1212 42.5 22.5 42.5H37.5C38.8787 42.5 40 41.3787 40 40V28.75C40 27.3713 38.8787 26.25 37.5 26.25H36.25V23.75C36.25 20.3038 33.4462 17.5 30 17.5ZM26.25 23.75C26.25 21.6825 27.9325 20 30 20C32.0675 20 33.75 21.6825 33.75 23.75V26.25H26.25V23.75ZM37.5025 40H31.25V37.1525C31.9937 36.7188 32.5 35.9212 32.5 35C32.5 33.6213 31.3787 32.5 30 32.5C28.6213 32.5 27.5 33.6213 27.5 35C27.5 35.92 28.0063 36.7188 28.75 37.1525V40H22.5V28.75H37.5L37.5025 40Z" fill="#265E55"/>
</svg>
