<svg width="98" height="25" viewBox="0 0 98 25" fill="none" xmlns="http://www.w3.org/2000/svg">
<path d="M0.0400002 0.447998H14.76V4.928H4.68V10.272H13.416V14.752H4.68V24H0.0400002V0.447998ZM21.7223 24.672C20.4636 24.672 19.4076 24.288 18.5543 23.52C17.7009 22.7307 17.2529 21.7173 17.2103 20.48V10.016H21.6903V18.816C21.7329 19.4347 21.8929 19.936 22.1703 20.32C22.4476 20.6827 22.9169 20.864 23.5783 20.864C24.2396 20.864 24.8049 20.64 25.2743 20.192C25.7649 19.744 26.1383 19.136 26.3943 18.368C26.6716 17.5787 26.8103 16.6933 26.8103 15.712V10.016H31.2903V24H27.2263L26.8743 21.44L26.9383 21.728C26.6183 22.304 26.2129 22.816 25.7223 23.264C25.2316 23.712 24.6449 24.0533 23.9623 24.288C23.3009 24.544 22.5543 24.672 21.7223 24.672ZM36.7098 3.872H41.1898V9.952H44.5818V13.44H41.1898V24H36.7098V13.44H34.5338V9.952H36.7098V3.872ZM52.0035 24.672C50.7448 24.672 49.6888 24.288 48.8355 23.52C47.9822 22.7307 47.5342 21.7173 47.4915 20.48V10.016H51.9715V18.816C52.0142 19.4347 52.1742 19.936 52.4515 20.32C52.7288 20.6827 53.1982 20.864 53.8595 20.864C54.5208 20.864 55.0862 20.64 55.5555 20.192C56.0462 19.744 56.4195 19.136 56.6755 18.368C56.9528 17.5787 57.0915 16.6933 57.0915 15.712V10.016H61.5715V24H57.5075L57.1555 21.44L57.2195 21.728C56.8995 22.304 56.4942 22.816 56.0035 23.264C55.5128 23.712 54.9262 24.0533 54.2435 24.288C53.5822 24.544 52.8355 24.672 52.0035 24.672ZM69.711 10.016L70.127 13.856L70.031 13.28C70.4363 12.448 70.991 11.744 71.695 11.168C72.399 10.5707 73.0923 10.112 73.775 9.792C74.479 9.472 75.0123 9.312 75.375 9.312L75.151 13.792C74.1057 13.664 73.2097 13.8347 72.463 14.304C71.7163 14.7733 71.1403 15.392 70.735 16.16C70.3297 16.928 70.127 17.7173 70.127 18.528V24H65.679V10.016H69.711ZM84.559 24.384C82.8523 24.384 81.4017 24.064 80.207 23.424C79.0337 22.784 78.1377 21.8987 77.519 20.768C76.9003 19.6373 76.591 18.336 76.591 16.864C76.591 15.456 76.9537 14.1867 77.679 13.056C78.4043 11.9253 79.375 11.0293 80.591 10.368C81.807 9.68533 83.1617 9.344 84.655 9.344C86.6603 9.344 88.303 9.93067 89.583 11.104C90.8843 12.256 91.727 13.9307 92.111 16.128L81.231 19.584L80.239 17.152L88.111 14.496L87.183 14.912C87.0123 14.3573 86.703 13.8773 86.255 13.472C85.8283 13.0453 85.1777 12.832 84.303 12.832C83.6417 12.832 83.055 12.992 82.543 13.312C82.0523 13.6107 81.6683 14.048 81.391 14.624C81.135 15.1787 81.007 15.84 81.007 16.608C81.007 17.4827 81.167 18.2187 81.487 18.816C81.807 19.392 82.2443 19.8293 82.799 20.128C83.3537 20.4267 83.9723 20.576 84.655 20.576C85.1457 20.576 85.615 20.4907 86.063 20.32C86.5323 20.1493 86.991 19.9253 87.439 19.648L89.423 22.976C88.6763 23.4027 87.8657 23.744 86.991 24C86.1377 24.256 85.327 24.384 84.559 24.384ZM93.0425 21.696C93.0425 21.0347 93.2772 20.48 93.7465 20.032C94.2372 19.584 94.7705 19.36 95.3465 19.36C95.8798 19.36 96.3812 19.584 96.8505 20.032C97.3412 20.48 97.5865 21.0347 97.5865 21.696C97.5865 22.4 97.3412 22.9653 96.8505 23.392C96.3812 23.7973 95.8798 24 95.3465 24C94.7705 24 94.2372 23.7973 93.7465 23.392C93.2772 22.9653 93.0425 22.4 93.0425 21.696Z" fill="#265E55"/>
</svg>
