<svg width="80" height="20" viewBox="0 0 80 20" fill="none" xmlns="http://www.w3.org/2000/svg">
<g clip-path="url(#clip0_192_1838)">
<path fill-rule="evenodd" clip-rule="evenodd" d="M6.9803 4.5621H12.4469C15.382 4.5621 16.4869 6.048 16.3162 8.23099C16.034 11.835 13.8552 13.8289 10.9653 13.8289H9.50619C9.10967 13.8289 8.84297 14.0913 8.73572 14.8025L8.11625 18.9371C8.07532 19.2052 7.93421 19.3604 7.72255 19.3816H4.28791C3.96476 19.3816 3.85046 19.1346 3.93513 18.5998L6.02922 5.34527C6.11106 4.81469 6.40175 4.5621 6.9803 4.5621Z" fill="#009EE3"/>
<path fill-rule="evenodd" clip-rule="evenodd" d="M30.7138 4.31659C32.5581 4.31659 34.2599 5.31707 34.0271 7.8105C33.7449 10.7738 32.1574 12.4135 29.6526 12.4206H27.464C27.1493 12.4206 26.9969 12.6774 26.9151 13.2038L26.4918 15.8947C26.4283 16.3011 26.2194 16.5015 25.9118 16.5015H23.8756C23.551 16.5015 23.4381 16.2941 23.5101 15.8298L25.1907 5.04472C25.274 4.51415 25.4729 4.31659 25.8356 4.31659H30.7096H30.7138ZM27.3977 10.0908H29.0557C30.0929 10.0513 30.7815 9.33308 30.8507 8.03768C30.893 7.23758 30.3525 6.66467 29.4932 6.66891L27.9325 6.67596L27.3977 10.0908ZM39.5629 15.676C39.7491 15.5067 39.9382 15.4192 39.9114 15.628L39.8451 16.1276C39.8112 16.3886 39.9142 16.5269 40.1569 16.5269H41.966C42.2708 16.5269 42.4189 16.4042 42.4937 15.9328L43.6085 8.93656C43.6649 8.58519 43.5789 8.41304 43.3122 8.41304H41.3225C41.1433 8.41304 41.0558 8.51323 41.0092 8.78698L40.9359 9.21737C40.8978 9.44173 40.7948 9.48125 40.6988 9.25547C40.3615 8.45678 39.5008 8.09836 38.2999 8.12658C35.5101 8.18444 33.6291 10.3025 33.4274 13.0175C33.2721 15.1172 34.7764 16.7668 36.7604 16.7668C38.1997 16.7668 38.8432 16.3435 39.5685 15.6803L39.5629 15.676ZM38.0473 14.5993C36.8465 14.5993 36.0097 13.6412 36.1832 12.4672C36.3568 11.2931 37.4801 10.335 38.6809 10.335C39.8818 10.335 40.7186 11.2931 40.545 12.4672C40.3714 13.6412 39.2496 14.5993 38.0473 14.5993ZM47.149 8.39046H45.3145C44.9364 8.39046 44.7825 8.67268 44.9025 9.01981L47.18 15.6887L44.9462 18.8623C44.7586 19.1276 44.9039 19.3689 45.1678 19.3689H47.2294C47.3496 19.3828 47.4712 19.3618 47.5798 19.3085C47.6883 19.2553 47.7793 19.1719 47.8418 19.0683L54.8466 9.02123C55.0625 8.71219 54.9609 8.38764 54.6067 8.38764H52.6551C52.3207 8.38764 52.1866 8.52028 51.9947 8.79827L49.0737 13.0316L47.7685 8.78839C47.6923 8.53157 47.5018 8.39046 47.1504 8.39046H47.149Z" fill="#113984"/>
<path fill-rule="evenodd" clip-rule="evenodd" d="M62.1343 4.31658C63.9786 4.31658 65.6804 5.31705 65.4475 7.81048C65.1653 10.7738 63.5778 12.4135 61.0731 12.4206H58.8859C58.5712 12.4206 58.4188 12.6774 58.337 13.2037L57.9136 15.8947C57.8501 16.3011 57.6413 16.5015 57.3337 16.5015H55.2974C54.9729 16.5015 54.86 16.2941 54.932 15.8298L56.6154 5.04188C56.6987 4.51131 56.8976 4.31375 57.2603 4.31375H62.1343V4.31658ZM58.8181 10.0908H60.4762C61.5134 10.0513 62.202 9.33307 62.2711 8.03767C62.3135 7.23757 61.773 6.66466 60.9136 6.66889L59.353 6.67595L58.8181 10.0908ZM70.9833 15.676C71.1696 15.5067 71.3587 15.4192 71.3319 15.628L71.2655 16.1276C71.2317 16.3886 71.3347 16.5269 71.5774 16.5269H73.3864C73.6912 16.5269 73.8394 16.4041 73.9142 15.9328L75.029 8.93655C75.0854 8.58518 74.9993 8.41303 74.7326 8.41303H72.7458C72.5666 8.41303 72.4791 8.51321 72.4325 8.78697L72.3591 9.21735C72.321 9.44172 72.218 9.48124 72.1221 9.25546C71.7848 8.45677 70.9241 8.09835 69.7232 8.12657C66.9334 8.18443 65.0524 10.3025 64.8506 13.0175C64.6954 15.1172 66.1997 16.7668 68.1837 16.7668C69.623 16.7668 70.2665 16.3435 70.9918 15.6802L70.9833 15.676ZM69.4692 14.5993C68.2683 14.5993 67.4316 13.6412 67.6051 12.4671C67.7787 11.2931 68.9019 10.335 70.1028 10.335C71.3036 10.335 72.1404 11.2931 71.9669 12.4671C71.7933 13.6412 70.6701 14.5993 69.4692 14.5993ZM77.8131 16.5382H75.7246C75.6883 16.5398 75.6521 16.5334 75.6185 16.5194C75.585 16.5054 75.5549 16.4842 75.5305 16.4572C75.5061 16.4302 75.488 16.3982 75.4774 16.3634C75.4668 16.3286 75.464 16.292 75.4692 16.256L77.3037 4.63408C77.3212 4.55476 77.365 4.4837 77.428 4.43246C77.4911 4.38122 77.5696 4.35281 77.6508 4.35185H79.7392C79.7756 4.35023 79.8118 4.35665 79.8454 4.37065C79.8789 4.38465 79.909 4.40589 79.9334 4.43285C79.9578 4.45981 79.9759 4.49183 79.9865 4.52661C79.9971 4.5614 79.9999 4.59809 79.9947 4.63408L78.1602 16.256C78.1433 16.3358 78.0997 16.4075 78.0366 16.4593C77.9735 16.5111 77.8947 16.5399 77.8131 16.541V16.5382Z" fill="#009EE3"/>
<path fill-rule="evenodd" clip-rule="evenodd" d="M3.5614 0H9.03368C10.5746 0 12.4034 0.0493888 13.6254 1.12889C14.4425 1.84996 14.8714 2.9972 14.7727 4.23333C14.4368 8.41162 11.9377 10.7526 8.58495 10.7526H5.88691C5.42689 10.7526 5.1235 11.0574 4.99368 11.8815L4.24014 16.6793C4.19076 16.9897 4.0567 17.1732 3.81681 17.1958H0.440029C0.066085 17.1958 -0.0665605 16.9136 0.030806 16.2898L2.45791 0.911575C2.55528 0.293509 2.89536 0 3.5614 0Z" fill="#113984"/>
<path fill-rule="evenodd" clip-rule="evenodd" d="M5.07324 11.3947L6.02856 5.34528C6.11182 4.8147 6.40251 4.5607 6.98106 4.5607H12.4477C13.3522 4.5607 14.0846 4.70181 14.6575 4.96287C14.1086 8.68255 11.7026 10.7484 8.55304 10.7484H5.85923C5.49799 10.7498 5.2327 10.9304 5.07324 11.3947Z" fill="#172C70"/>
</g>
<defs>
<clipPath id="clip0_192_1838">
<rect width="80" height="19.3816" fill="white"/>
</clipPath>
</defs>
</svg>
