<svg width="60" height="60" viewBox="0 0 60 60" fill="none" xmlns="http://www.w3.org/2000/svg">
<circle cx="30" cy="30" r="30" fill="#F8F8F8"/>
<path d="M17.5 30C17.5 32.9837 18.6853 35.8452 20.795 37.955C22.9048 40.0647 25.7663 41.25 28.75 41.25C31.7375 41.25 34.6 40.075 36.75 38L34.875 36.125C34.0878 36.958 33.1381 37.6208 32.0846 38.0723C31.0311 38.5238 29.8962 38.7544 28.75 38.75C20.95 38.75 17.05 29.325 22.5625 23.8125C28.075 18.3 37.5 22.2125 37.5 30H33.75L38.75 35H38.875L43.75 30H40C40 27.0163 38.8147 24.1548 36.705 22.045C34.5952 19.9353 31.7337 18.75 28.75 18.75C25.7663 18.75 22.9048 19.9353 20.795 22.045C18.6853 24.1548 17.5 27.0163 17.5 30Z" fill="#265E55"/>
</svg>
