<svg width="60" height="60" viewBox="0 0 60 60" fill="none" xmlns="http://www.w3.org/2000/svg">
<circle cx="30" cy="30" r="30" fill="#F8F8F8"/>
<path d="M41.1499 17.975C39.7466 17.6607 38.313 17.5014 36.8749 17.5C35.5168 17.4138 34.155 17.5969 32.8679 18.0388C31.5807 18.4807 30.3937 19.1727 29.3749 20.075C28.0332 21.4167 26.7041 22.7542 25.3874 24.0875C23.8749 23.925 20.2874 23.8375 17.8874 26.2625C17.6546 26.4967 17.5239 26.8135 17.5239 27.1437C17.5239 27.474 17.6546 27.7908 17.8874 28.025L32.0124 42.175C32.2466 42.4078 32.5634 42.5385 32.8937 42.5385C33.2239 42.5385 33.5407 42.4078 33.7749 42.175C36.2124 39.675 36.1374 36.15 35.9874 34.675L39.9999 30.675C43.9874 26.6875 42.1749 19.2 42.0999 18.8875C42.0422 18.662 41.9227 18.4572 41.7549 18.296C41.587 18.1347 41.3775 18.0236 41.1499 17.975ZM38.1999 28.9125L33.7499 33.3375C33.6058 33.483 33.4997 33.6617 33.4408 33.8579C33.382 34.0541 33.3722 34.2617 33.4124 34.4625C33.6824 36.1348 33.4474 37.8496 32.7374 39.3875L20.6499 27.275C22.2122 26.556 23.9587 26.3377 25.6499 26.65C25.85 26.6761 26.0534 26.6533 26.2428 26.5836C26.4322 26.514 26.6019 26.3995 26.7374 26.25C26.7374 26.25 28.4874 24.4375 31.1249 21.8C32.7467 20.4976 34.8 19.8549 36.8749 20C37.8509 20.0048 38.8249 20.0884 39.7874 20.25C40.0874 22.0375 40.5624 26.55 38.1999 28.9125Z" fill="#265E55"/>
<path d="M34.6626 27.875C36.0433 27.875 37.1626 26.7557 37.1626 25.375C37.1626 23.9943 36.0433 22.875 34.6626 22.875C33.2819 22.875 32.1626 23.9943 32.1626 25.375C32.1626 26.7557 33.2819 27.875 34.6626 27.875Z" fill="#265E55"/>
<path d="M21.25 35C18.75 36.25 18.75 41.25 18.75 41.25C21.0638 41.184 23.2789 40.2979 25 38.75L21.25 35Z" fill="#265E55"/>
</svg>
