<svg width="18" height="18" viewBox="0 0 18 18" fill="none" xmlns="http://www.w3.org/2000/svg">
<path d="M17.289 6.64918C17.2366 6.4949 17.1402 6.35934 17.0117 6.25923C16.8831 6.15912 16.7281 6.09884 16.5657 6.08585L11.8149 5.70835L9.75903 1.15751C9.69355 1.01094 9.58706 0.886447 9.4524 0.79906C9.31774 0.711673 9.16066 0.665127 9.00013 0.665039C8.8396 0.664951 8.68247 0.711325 8.54771 0.798564C8.41296 0.885802 8.30633 1.01018 8.24069 1.15668L6.18486 5.70835L1.43403 6.08585C1.27441 6.09849 1.12181 6.15685 0.994488 6.25395C0.867169 6.35105 0.77052 6.48278 0.716103 6.63337C0.661687 6.78396 0.651807 6.94704 0.687647 7.1031C0.723486 7.25916 0.803526 7.40159 0.918193 7.51335L4.42903 10.9358L3.18736 16.3125C3.14966 16.4753 3.16174 16.6456 3.22204 16.8014C3.28234 16.9572 3.38808 17.0913 3.52553 17.1862C3.66298 17.2812 3.82579 17.3326 3.99285 17.3339C4.1599 17.3352 4.32348 17.2862 4.46236 17.1933L8.99986 14.1683L13.5374 17.1933C13.6793 17.2876 13.8467 17.3361 14.0171 17.3324C14.1874 17.3286 14.3525 17.2728 14.4902 17.1725C14.6279 17.0721 14.7315 16.9319 14.7872 16.7709C14.8428 16.6099 14.8478 16.4356 14.8015 16.2717L13.2774 10.9383L17.0574 7.53668C17.3049 7.31335 17.3957 6.96501 17.289 6.64918Z" fill="#FF9533"/>
</svg>
