<svg width="16" height="16" viewBox="0 0 16 16" fill="none" xmlns="http://www.w3.org/2000/svg">
<path d="M15.9583 6.13745C15.8536 5.81346 15.5662 5.58336 15.2262 5.55272L10.6082 5.13339L8.78209 0.859236C8.64744 0.545995 8.34079 0.343231 8.00008 0.343231C7.65938 0.343231 7.35273 0.545995 7.21808 0.859968L5.39198 5.13339L0.773211 5.55272C0.433847 5.58409 0.147219 5.81346 0.0418692 6.13745C-0.0634802 6.46143 0.0338123 6.81679 0.290533 7.04079L3.78122 10.1021L2.7519 14.6363C2.67658 14.9697 2.80598 15.3143 3.0826 15.5143C3.23128 15.6217 3.40524 15.6764 3.58066 15.6764C3.73191 15.6764 3.88193 15.6356 4.01658 15.555L8.00008 13.1742L11.9821 15.555C12.2735 15.7303 12.6408 15.7144 12.9168 15.5143C13.1936 15.3137 13.3229 14.969 13.2475 14.6363L12.2182 10.1021L15.7089 7.0414C15.9656 6.81679 16.0636 6.46204 15.9583 6.13745Z" fill="#D9D9D9"/>
</svg>
