<svg width="40" height="40" viewBox="0 0 40 40" fill="none" xmlns="http://www.w3.org/2000/svg">
<circle cx="20" cy="20" r="20" fill="#E8E8E8"/>
<path d="M27.148 10.971C26.9698 10.6755 26.7185 10.431 26.4183 10.2609C26.118 10.0908 25.779 10.0009 25.434 10H14.566C13.868 10 13.211 10.372 12.852 10.971L10.143 15.485C10.0493 15.6404 9.99981 15.8185 10 16C10.004 16.9652 10.3595 17.8959 11 18.618V27C11 28.103 11.897 29 13 29H27C28.103 29 29 28.103 29 27V18.618C29.6405 17.8959 29.996 16.9652 30 16C30.0002 15.8185 29.9507 15.6404 29.857 15.485L27.148 10.971ZM27.984 16.251C27.9223 16.7338 27.6868 17.1776 27.3217 17.4995C26.9566 17.8214 26.4867 17.9993 26 18C24.897 18 24 17.103 24 16C24 15.932 23.975 15.872 23.961 15.808L23.981 15.804L23.22 12H25.434L27.984 16.251ZM18.819 12H21.18L21.993 16.065C21.958 17.137 21.08 18 20 18C18.92 18 18.042 17.137 18.007 16.065L18.819 12ZM14.566 12H16.78L16.02 15.804L16.04 15.808C16.025 15.872 16 15.932 16 16C16 17.103 15.103 18 14 18C13.5133 17.9993 13.0434 17.8214 12.6783 17.4995C12.3132 17.1776 12.0777 16.7338 12.016 16.251L14.566 12ZM18 27V24H22V27H18ZM24 27V24C24 22.897 23.103 22 22 22H18C16.897 22 16 22.897 16 24V27H13V19.858C13.321 19.941 13.652 20 14 20C14.5678 20.0003 15.1292 19.8794 15.6465 19.6454C16.1639 19.4114 16.6253 19.0696 17 18.643C17.733 19.475 18.807 20 20 20C21.193 20 22.267 19.475 23 18.643C23.3747 19.0696 23.8361 19.4114 24.3535 19.6454C24.8708 19.8794 25.4322 20.0003 26 20C26.348 20 26.679 19.941 27 19.858V27H24Z" fill="#8F8F8F"/>
</svg>
