<svg width="60" height="60" viewBox="0 0 60 60" fill="none" xmlns="http://www.w3.org/2000/svg">
<circle cx="30" cy="30" r="30" fill="#F8F8F8"/>
<path d="M37.1337 30.3663C37.0177 30.2501 36.8799 30.1579 36.7283 30.095C36.5767 30.0321 36.4141 29.9998 36.2499 29.9998C36.0858 29.9998 35.9232 30.0321 35.7716 30.095C35.6199 30.1579 35.4822 30.2501 35.3662 30.3663L33.3737 32.3588C32.4499 32.0838 30.7262 31.4588 29.6337 30.3663C28.5412 29.2738 27.9162 27.55 27.6412 26.6263L29.6337 24.6338C29.7499 24.5178 29.842 24.38 29.9049 24.2284C29.9678 24.0767 30.0002 23.9142 30.0002 23.75C30.0002 23.5858 29.9678 23.4233 29.9049 23.2716C29.842 23.12 29.7499 22.9822 29.6337 22.8663L24.6337 17.8663C24.5177 17.7501 24.3799 17.6579 24.2283 17.595C24.0767 17.5321 23.9141 17.4998 23.7499 17.4998C23.5858 17.4998 23.4232 17.5321 23.2716 17.595C23.1199 17.6579 22.9822 17.7501 22.8662 17.8663L19.4762 21.2563C19.0012 21.7313 18.7337 22.3838 18.7437 23.05C18.7724 24.83 19.2437 31.0125 24.1162 35.885C28.9887 40.7575 35.1712 41.2275 36.9524 41.2575H36.9874C37.6474 41.2575 38.2712 40.9975 38.7437 40.525L42.1337 37.135C42.2499 37.019 42.342 36.8813 42.4049 36.7296C42.4678 36.578 42.5002 36.4154 42.5002 36.2513C42.5002 36.0871 42.4678 35.9245 42.4049 35.7729C42.342 35.6212 42.2499 35.4835 42.1337 35.3675L37.1337 30.3663ZM36.9749 38.7563C35.4149 38.73 30.0774 38.3113 25.8837 34.1163C21.6762 29.9088 21.2687 24.5525 21.2437 23.0238L23.7499 20.5175L26.9824 23.75L25.3662 25.3663C25.2193 25.5131 25.1112 25.6942 25.0519 25.8932C24.9925 26.0923 24.9837 26.3029 25.0262 26.5063C25.0562 26.65 25.7899 30.0588 27.8649 32.1338C29.9399 34.2088 33.3487 34.9425 33.4924 34.9725C33.6956 35.0162 33.9065 35.0081 34.1057 34.9489C34.305 34.8897 34.4861 34.7813 34.6324 34.6338L36.2499 33.0175L39.4824 36.25L36.9749 38.7563Z" fill="#265E55"/>
</svg>
