<svg width="50" height="50" viewBox="0 0 50 50" fill="none" xmlns="http://www.w3.org/2000/svg">
<circle cx="25" cy="25" r="25" fill="#F8F8F8"/>
<path d="M32.633 20.997C32.646 21.172 32.646 21.346 32.646 21.52C32.646 26.845 28.593 32.981 21.186 32.981C18.904 32.981 16.784 32.32 15 31.172C15.324 31.209 15.636 31.222 15.973 31.222C17.786 31.2264 19.5476 30.6201 20.974 29.501C20.1334 29.4858 19.3186 29.2084 18.6432 28.7077C17.9679 28.207 17.4658 27.5079 17.207 26.708C17.456 26.745 17.706 26.77 17.968 26.77C18.329 26.77 18.692 26.72 19.029 26.633C18.1168 26.4488 17.2965 25.9543 16.7076 25.2337C16.1188 24.513 15.7977 23.6106 15.799 22.68V22.63C16.336 22.929 16.959 23.116 17.619 23.141C17.0661 22.7736 16.6127 22.275 16.2993 21.6898C15.986 21.1045 15.8223 20.4508 15.823 19.787C15.823 19.039 16.022 18.353 16.371 17.755C17.3831 19 18.6455 20.0185 20.0763 20.7446C21.5072 21.4707 23.0746 21.8882 24.677 21.97C24.615 21.67 24.577 21.359 24.577 21.047C24.5767 20.5179 24.6807 19.994 24.8831 19.5052C25.0854 19.0164 25.3821 18.5723 25.7562 18.1982C26.1303 17.8241 26.5744 17.5274 27.0632 17.3251C27.5521 17.1227 28.076 17.0187 28.605 17.019C29.765 17.019 30.812 17.505 31.548 18.291C32.4498 18.1166 33.3145 17.7874 34.104 17.318C33.8034 18.2488 33.1738 19.0381 32.333 19.538C33.1328 19.4468 33.9144 19.2364 34.652 18.914C34.1011 19.7171 33.4185 20.4213 32.633 20.997Z" fill="#000201"/>
</svg>
