<svg width="50" height="50" viewBox="0 0 50 50" fill="none" xmlns="http://www.w3.org/2000/svg">
<circle cx="25" cy="25" r="25" fill="#265E55"/>
<path d="M17.9829 20.197C19.1913 20.197 20.1709 19.2174 20.1709 18.009C20.1709 16.8006 19.1913 15.821 17.9829 15.821C16.7745 15.821 15.7949 16.8006 15.7949 18.009C15.7949 19.2174 16.7745 20.197 17.9829 20.197Z" fill="#F8DFB6"/>
<path d="M22.2367 21.855V33.994H26.0057V27.991C26.0057 26.407 26.3037 24.873 28.2677 24.873C30.2047 24.873 30.2287 26.684 30.2287 28.091V33.995H33.9997V27.338C33.9997 24.068 33.2957 21.555 29.4737 21.555C27.6387 21.555 26.4087 22.562 25.9057 23.515H25.8547V21.855H22.2367ZM16.0947 21.855H19.8697V33.994H16.0947V21.855Z" fill="#F8DFB6"/>
</svg>
