<svg width="60" height="20" viewBox="0 0 60 20" fill="none" xmlns="http://www.w3.org/2000/svg">
<g clip-path="url(#clip0_191_1833)">
<path d="M31.0306 6.19424C30.9963 8.89317 33.4358 10.3994 35.2736 11.2948C37.1617 12.2137 37.7959 12.8028 37.7887 13.6244C37.7743 14.882 36.2825 15.4369 34.8862 15.4585C32.4503 15.4964 31.0342 14.8009 29.9081 14.2748L29.0307 18.3809C30.1604 18.9016 32.2521 19.3556 34.4214 19.3754C39.5129 19.3754 42.8443 16.8621 42.8623 12.965C42.8821 8.01935 36.0213 7.7455 36.0681 5.53482C36.0843 4.86459 36.7239 4.14931 38.1256 3.96734C38.8193 3.87546 40.7345 3.80519 42.9055 4.80513L43.7577 0.832397C42.5902 0.407198 41.0894 1.52588e-05 39.2211 1.52588e-05C34.4286 1.52588e-05 31.0576 2.54761 31.0306 6.19424ZM51.9464 0.342337C51.0168 0.342337 50.233 0.884647 49.8835 1.71703L42.6101 19.0836H47.698L48.7106 16.2855H54.9282L55.5156 19.0836H60L56.0867 0.342337H51.9464ZM52.6581 5.4051L54.1265 12.4425H50.1051L52.6581 5.4051ZM24.8616 0.342337L20.851 19.0836H25.6994L29.7081 0.342337H24.8616ZM17.689 0.342337L12.6425 13.0983L10.6012 2.25213C10.3615 1.04139 9.41565 0.342337 8.36526 0.342337H0.115308L0 0.886448C1.69359 1.25399 3.6178 1.84675 4.7835 2.48095C5.49697 2.86831 5.70056 3.20703 5.93478 4.1277L9.80121 19.0836H14.9252L22.7806 0.342337H17.689Z" fill="url(#paint0_linear_191_1833)"/>
</g>
<defs>
<linearGradient id="paint0_linear_191_1833" x1="27.5845" y1="19.7641" x2="28.1453" y2="-0.134724" gradientUnits="userSpaceOnUse">
<stop stop-color="#222357"/>
<stop offset="1" stop-color="#254AA5"/>
</linearGradient>
<clipPath id="clip0_191_1833">
<rect width="60" height="19.4531" fill="white"/>
</clipPath>
</defs>
</svg>
